<?xml version="1.0" standalone="no"?>
<!DOCTYPE svg PUBLIC "-//W3C//DTD SVG 20010904//EN"
 "http://www.w3.org/TR/2001/REC-SVG-20010904/DTD/svg10.dtd">
<svg version="1.0" xmlns="http://www.w3.org/2000/svg"
 width="260.000000pt" height="260.000000pt" viewBox="0 0 260.000000 260.000000"
 preserveAspectRatio="xMidYMid meet">
<metadata>
Created by potrace 1.11, written by Peter Selinger 2001-2013
</metadata>
<g transform="translate(0.000000,260.000000) scale(0.100000,-0.100000)"
fill="#000000" stroke="none">
<path d="M2045 2202 c-22 -8 -47 -17 -55 -20 -8 -3 -17 -6 -20 -7 -46 -11
-179 -61 -190 -71 -12 -10 -15 -36 -14 -113 l0 -101 -36 0 c-24 0 -43 7 -55
20 -18 20 -31 20 -741 20 -610 0 -725 -2 -737 -14 -12 -12 -14 -115 -14 -653
0 -361 4 -646 9 -656 8 -16 35 -17 358 -17 223 0 350 -4 350 -10 0 -5 -11 -22
-25 -37 -13 -16 -33 -39 -43 -52 -17 -22 -25 -23 -122 -25 -104 -1 -105 -1
-114 -28 -19 -53 -23 -53 564 -53 475 1 542 2 555 16 13 13 14 21 5 41 -12 24
-15 25 -117 25 -90 1 -106 3 -118 19 -7 11 -27 37 -45 59 l-32 40 350 3 c294
2 352 5 362 17 9 11 12 118 12 436 0 404 -1 422 -20 435 -13 9 -19 24 -18 50
l1 37 143 48 c78 26 142 45 142 43 0 -2 8 4 18 14 17 15 18 37 18 224 -1 113
-4 209 -8 213 -6 6 -151 60 -188 70 -8 2 -30 9 -47 14 -81 27 -88 27 -128 13z"/>
<path d="M1664 2106 c-21 -23 -22 -44 -4 -61 23 -21 56 -12 64 17 9 36 -36 69
-60 44z"/>
<path d="M1417 2103 c-31 -8 -9 -73 24 -73 7 0 20 7 30 16 14 13 16 20 7 40
-11 23 -23 27 -61 17z"/>
<path d="M1531 2093 c-13 -26 -11 -36 11 -51 23 -16 43 -10 57 17 8 15 7 23
-5 35 -21 21 -51 20 -63 -1z"/>
<path d="M2349 1609 c-21 -21 -16 -44 13 -60 24 -13 58 13 53 39 -2 9 -4 20
-4 23 -2 17 -44 16 -62 -2z"/>
<path d="M2345 1485 c-3 -8 -7 -21 -9 -28 -5 -18 31 -39 54 -32 22 7 30 26 23
54 -6 25 -61 30 -68 6z"/>
<path d="M2346 1365 c-12 -13 -13 -21 -4 -40 19 -41 79 -25 72 19 -5 35 -42
46 -68 21z"/>
</g>
</svg>
